<?xml version="1.0" encoding="utf-8"?>
<!-- Generator: Adobe Illustrator 27.5.0, SVG Export Plug-In . SVG Version: 6.00 Build 0)  -->
<!DOCTYPE svg PUBLIC "-//W3C//DTD SVG 1.1 Tiny//EN" "http://www.w3.org/Graphics/SVG/1.1/DTD/svg11-tiny.dtd" [
	<!ENTITY ns_extend "http://ns.adobe.com/Extensibility/1.0/">
	<!ENTITY ns_ai "http://ns.adobe.com/AdobeIllustrator/10.0/">
	<!ENTITY ns_graphs "http://ns.adobe.com/Graphs/1.0/">
	<!ENTITY ns_vars "http://ns.adobe.com/Variables/1.0/">
	<!ENTITY ns_imrep "http://ns.adobe.com/ImageReplacement/1.0/">
	<!ENTITY ns_sfw "http://ns.adobe.com/SaveForWeb/1.0/">
	<!ENTITY ns_custom "http://ns.adobe.com/GenericCustomNamespace/1.0/">
	<!ENTITY ns_adobe_xpath "http://ns.adobe.com/XPath/1.0/">
]>
<svg version="1.1" baseProfile="tiny" id="artwork" xmlns:x="&ns_extend;" xmlns:i="&ns_ai;" xmlns:graph="&ns_graphs;"
	 xmlns="http://www.w3.org/2000/svg" xmlns:xlink="http://www.w3.org/1999/xlink" x="0px" y="0px"
	 viewBox="0 0 674.6456909 267.9250488" overflow="visible" xml:space="preserve">
<metadata>
	<sfw  xmlns="&ns_sfw;">
		<slices></slices>
		<sliceSourceBounds  bottomLeftOrigin="true" height="77.9888229" width="481.8897018" x="96.3779984" y="93.5582565">
			</sliceSourceBounds>
	</sfw>
</metadata>
<g id="IVECO">
	<path id="O_00000138540336265054664600000016930007562990287544_" d="M502.6722717,171.5450592
		c-14.6594543,0-26.5860901-9.8515625-26.5860901-21.9610596v-31.2449722c0-12.1094894,11.9266357-21.9610596,26.5860901-21.9610596
		h49.0093689c14.6594238,0,26.5860596,9.8515701,26.5860596,21.9610596v31.2449722
		c0,12.1094971-11.9266357,21.9610596-26.5860596,21.9610596H502.6722717z M498.1169128,114.4438019
		c-0.3027649,0-0.5492554,0.2461548-0.5492554,0.5485764v37.8929214c0,0.3027496,0.2464905,0.5489044,0.5492554,0.5489044
		h57.7825012c0.3027344,0,0.5492554-0.2461548,0.5492554-0.5489044v-37.8929214c0-0.3024216-0.246521-0.5485764-0.5492554-0.5485764
		H498.1169128z"/>
	<path id="E_00000029765127085274980120000003927566906346276258_" d="M347.3227539,171.545517h-61.0654297
		c-14.6601257,0-26.5864258-9.8515625-26.5864258-21.9610596v-31.2559052c0-12.1094971,11.9263-21.9610596,26.5864258-21.9489212
		h60.7623291l0.441864-0.0009155c0.9300537,0,1.6839905,0.7539444,1.6839905,1.6839905l0.0003052,0.065918v14.6352997h-0.0003052
		c0,0.9300461-0.7539368,1.6839905-1.6839905,1.6839905l-0.1410217-0.000885l-65.5314636,0.0010071
		c-0.3523254,0-0.6390076,0.2866821-0.6390076,0.6389999v37.7084351c0,0.3523254,0.2866821,0.6390076,0.6390076,0.6390076
		l65.4728088,0.0008087l0.1996765,0.0004272c0.9300537,0,1.6839905,0.753952,1.6839905,1.6839905l0.0006409,0.03125
		l-0.0075378,14.6972961l0.0018616,0.0136719c0,0.9300385-0.7489014,1.6839905-1.6789551,1.6839905L347.3227539,171.545517z"/>
	<path id="E_00000006693064563156569160000005477375624969428886_" d="M456.6292114,171.545517h-61.0654602
		c-14.6601257,0-26.5864258-9.8515625-26.5864258-21.9610596v-31.2559052c0-12.1094971,11.9263-21.9610596,26.5864258-21.9489212
		h60.7623291l0.441864-0.0009155c0.9300537,0,1.6839905,0.7539444,1.6839905,1.6839905l0.0003052,0.065918v14.6352997h-0.0003052
		c0,0.9300461-0.7539368,1.6839905-1.6839905,1.6839905l-0.1410217-0.000885l-65.5314636,0.0010071
		c-0.3523254,0-0.6390076,0.2866821-0.6390076,0.6389999v37.7084351c0,0.3523254,0.2866821,0.6390076,0.6390076,0.6390076
		l65.4728088,0.0008087l0.1996765,0.0004272c0.9300537,0,1.6839905,0.753952,1.6839905,1.6839905l0.0006409,0.03125
		l-0.0075378,14.6972961l0.0018616,0.0136719c0,0.9300385-0.7489014,1.6839905-1.6789551,1.6839905L456.6292114,171.545517z"/>
	<path id="flashOFlight_00000023258013922986183210000011341313084246648469_" fill="#1554FF" d="M347.6381226,142.3729248
		h-54.6264648c-0.5456848,0-0.9921265-0.4464569-0.9921265-0.9921265v-14.6862946
		c0-0.5456696,0.4464417-0.9921265,0.9921265-0.9921265h54.6264648c0.5456543,0,0.9921265,0.4464569,0.9921265,0.9921265v14.6862946
		C348.630249,141.9264679,348.1837769,142.3729248,347.6381226,142.3729248z"/>
	<path id="V_00000163036926047058923260000017890258676905647525_" d="M190.4435272,174.3667908
		c-8.4178314,0-16.0724182-3.8282928-19.9767456-9.9908752l-0.226059-0.3781128l-38.0468903-65.3885345
		c-0.2528534-0.4511185-0.2478333-0.9745712,0.0077057-1.4106216c0.296051-0.5053711,0.8787842-0.8191757,1.5201416-0.8191757
		h20.075882c0.6547394,0,1.242157,0.3228531,1.5335236,0.8426208l34.3646088,58.8197021
		c0.0720062,0.0847321,0.2870178,0.2719421,0.7796631,0.2823334c0.562973-0.0040283,0.7207031-0.2625732,0.7967377-0.3868256
		l37.3030548-58.7721405c0.2927094-0.4805908,0.869751-0.7856903,1.4997101-0.7856903h20.389679
		c0.6537476,0,1.2415009,0.3228531,1.5335388,0.8426208c0.2525177,0.4491119,0.2424622,0.9812698-0.0271301,1.4236832
		l-41.3802032,65.470253c-3.8122101,6.2627258-11.4631195,10.1938324-19.9609985,10.2501068L190.4435272,174.3667908z"/>
	<path id="I_00000083050634839679583510000001810702503462520206_" d="M116.3610001,171.5464478H98.0619965
		c-0.9261932,0-1.6839981-0.7577972-1.6839981-1.6839905V98.0627136c0-0.9262009,0.7578049-1.6839981,1.6839981-1.6839981
		h18.2990036c0.9262009,0,1.6839981,0.7577972,1.6839981,1.6839981v71.7997437
		C118.0449982,170.7886505,117.2872009,171.5464478,116.3610001,171.5464478z"/>
</g>
</svg>
